<svg xmlns="http://www.w3.org/2000/svg" xmlns:xlink="http://www.w3.org/1999/xlink" width="51.689" height="51.69" viewBox="0 0 51.689 51.69">
  <defs>
    <style>
      .cls-1 {
        fill: #fff;
      }

      .cls-2 {
        fill: #3acba0;
      }

      .cls-3 {
        clip-path: url(#clip-path);
      }
    </style>
    <clipPath id="clip-path">
      <path id="Path_1143" data-name="Path 1143" class="cls-1" d="M0,8.991,24.248,1.032,27.048,0l3.685,5.97L20.053,19.619l-8.186,3.154L4.439,19.619Z"/>
    </clipPath>
  </defs>
  <g id="Group_1646" data-name="Group 1646" transform="translate(51.69) rotate(90)">
    <ellipse id="Ellipse_30" data-name="Ellipse 30" class="cls-2" cx="25.845" cy="25.845" rx="25.845" ry="25.845"/>
    <g id="Group_1598" data-name="Group 1598" transform="translate(14.07 39.549) rotate(-90)">
      <g id="Group_1597" data-name="Group 1597">
        <g id="Mask_Group_9" data-name="Mask Group 9" class="cls-3">
          <path id="Path_1129" data-name="Path 1129" class="cls-1" d="M7.8,15.633a1.089,1.089,0,0,1-.772-.32L.321,8.6A1.093,1.093,0,0,1,1.866,7.058L7.8,12.995,20.179.32a1.093,1.093,0,1,1,1.545,1.545L8.574,15.313a1.086,1.086,0,0,1-.773.32Zm0,0" transform="translate(4.439 3.736)"/>
        </g>
      </g>
    </g>
  </g>
</svg>
