<svg xmlns="http://www.w3.org/2000/svg" width="29.227" height="32.305" viewBox="0 0 29.227 32.305">
  <defs>
    <style>
      .cls-1 {
        fill: #d60a1f;
      }

      .cls-2 {
        fill: #242424;
      }
    </style>
  </defs>
  <g id="Group_1586" data-name="Group 1586" transform="translate(0.001 0)">
    <g id="Group_1571" data-name="Group 1571" transform="translate(0 1.542)">
      <circle id="Ellipse_17" data-name="Ellipse 17" class="cls-1" cx="2.074" cy="2.074" r="2.074" transform="translate(11.668 0)"/>
      <circle id="Ellipse_18" data-name="Ellipse 18" class="cls-1" cx="2.074" cy="2.074" r="2.074" transform="translate(11.668 26.616)"/>
      <circle id="Ellipse_19" data-name="Ellipse 19" class="cls-1" cx="2.074" cy="2.074" r="2.074" transform="translate(23.05 6.411)"/>
      <circle id="Ellipse_20" data-name="Ellipse 20" class="cls-1" cx="2.074" cy="2.074" r="2.074" transform="translate(0.287 20.204)"/>
      <circle id="Ellipse_21" data-name="Ellipse 21" class="cls-1" cx="2.074" cy="2.074" r="2.074" transform="translate(23.337 19.707)"/>
      <circle id="Ellipse_22" data-name="Ellipse 22" class="cls-1" cx="2.074" cy="2.074" r="2.074" transform="translate(0 6.909)"/>
    </g>
    <g id="Group_1585" data-name="Group 1585" transform="translate(0.495 0)">
      <g id="Group_1572" data-name="Group 1572" transform="translate(11.67)">
        <path id="Path_639" data-name="Path 639" class="cls-2" d="M222,422.53a2.7,2.7,0,0,0-2.7,2.694,2.663,2.663,0,0,0,.107.749,2.692,2.692,0,0,0,.613,1.082,2.722,2.722,0,0,0,1.354.79c.032.009.066.016.1.022a2.69,2.69,0,0,0,.523.051,2.608,2.608,0,0,0,.6-.067l.026-.006a2.684,2.684,0,0,0,1.091-.542,2.761,2.761,0,0,0,.263-.249,2.692,2.692,0,0,0,.613-1.082,2.662,2.662,0,0,0,.107-.749A2.7,2.7,0,0,0,222,422.53Zm1.076,3.669a1.489,1.489,0,0,1-.23.2,1.511,1.511,0,0,1-.225.134,1.449,1.449,0,0,1-.445.128,1.374,1.374,0,0,1-.176.011q-.043,0-.086,0a1.437,1.437,0,0,1-.536-.135,1.513,1.513,0,0,1-.225-.134,1.529,1.529,0,0,1-.175-.148,1.44,1.44,0,0,1-.427-.939c0-.03,0-.061,0-.092a1.453,1.453,0,0,1,2.905,0c0,.031,0,.062,0,.092A1.435,1.435,0,0,1,223.073,426.2Z" transform="translate(-219.302 -422.53)"/>
      </g>
      <g id="Group_1573" data-name="Group 1573" transform="translate(11.67 26.616)">
        <path id="Path_640" data-name="Path 640" class="cls-2" d="M224.669,639.071a2.672,2.672,0,0,0-.451-1.173h0a2.7,2.7,0,0,0-1.6-1.095,2.667,2.667,0,0,0-1.243,0,2.7,2.7,0,0,0-1.6,1.095h0a2.671,2.671,0,0,0-.451,1.173,2.551,2.551,0,0,0-.024.353,2.7,2.7,0,0,0,5.39,0A2.551,2.551,0,0,0,224.669,639.071ZM222,640.877a1.454,1.454,0,0,1-1.4-1.072,1.419,1.419,0,0,1-.051-.38,1.439,1.439,0,0,1,.316-.9,1.461,1.461,0,0,1,.516-.411,1.456,1.456,0,0,1,1.243,0,1.46,1.46,0,0,1,.516.411,1.439,1.439,0,0,1,.316.9,1.42,1.42,0,0,1-.051.38A1.454,1.454,0,0,1,222,640.877Z" transform="translate(-219.302 -636.73)"/>
      </g>
      <g id="Group_1574" data-name="Group 1574" transform="translate(23.05 6.412)">
        <path id="Path_641" data-name="Path 641" class="cls-2" d="M315.89,475.428a2.694,2.694,0,0,0-4.918.738l0,.016a2.676,2.676,0,0,0,.046,1.451h0a2.709,2.709,0,0,0,.267.586,2.693,2.693,0,0,0,2.043,1.285c.088.009.176.014.266.014a2.644,2.644,0,0,0,.977-.185,2.677,2.677,0,0,0,.415-.205h0A2.7,2.7,0,0,0,315.89,475.428Zm-1.323,2.468a1.455,1.455,0,0,1-2.223-.318,1.455,1.455,0,0,1-.208-.649q0-.047,0-.093a1.513,1.513,0,0,1,.042-.357,1.45,1.45,0,0,1,.486-.774,1.722,1.722,0,0,1,.173-.122,1.452,1.452,0,0,1,1.994.49A1.454,1.454,0,0,1,314.567,477.9Z" transform="translate(-310.889 -474.131)"/>
      </g>
      <g id="Group_1575" data-name="Group 1575" transform="translate(0.287 20.203)">
        <path id="Path_642" data-name="Path 642" class="cls-2" d="M133.043,587.318q-.009-.052-.022-.1a2.686,2.686,0,0,0-.322-.79,2.453,2.453,0,0,0-.171-.25,2.6,2.6,0,0,0-.326-.354,2.653,2.653,0,0,0-1.09-.6.721.721,0,0,0-.076-.021,2.52,2.52,0,0,0-.38-.063,2.632,2.632,0,0,0-1.243.17,2.579,2.579,0,0,0-.415.206,2.7,2.7,0,0,0,.754,4.922,2.727,2.727,0,0,0,.646.078,2.691,2.691,0,0,0,.718-.1,2.734,2.734,0,0,0,.673-.293,2.692,2.692,0,0,0,.36-.261,2.646,2.646,0,0,0,.733-1.011,2.606,2.606,0,0,0,.128-.39s0,0,0,0A2.689,2.689,0,0,0,133.043,587.318Zm-2.995,1.912a1.452,1.452,0,0,1-.635-2.481,1.416,1.416,0,0,1,.229-.171,1.442,1.442,0,0,1,.749-.211h.055a1.7,1.7,0,0,1,.21.022l.085.019a1.436,1.436,0,0,1,.726.432,1.291,1.291,0,0,1,.085.1,1.405,1.405,0,0,1,.086.127,1.232,1.232,0,0,1,.073.139,1.424,1.424,0,0,1,.112.879c0,.027-.011.053-.017.081l-.015.055a1.335,1.335,0,0,1-.087.229,1.471,1.471,0,0,1-.137.23,1.437,1.437,0,0,1-.419.383,1.462,1.462,0,0,1-1.1.169Z" transform="translate(-127.699 -585.124)"/>
      </g>
      <g id="Group_1576" data-name="Group 1576" transform="translate(23.336 19.706)">
        <path id="Path_643" data-name="Path 643" class="cls-2" d="M318.477,583.058a2.68,2.68,0,0,0-1.292-1.608,2.721,2.721,0,0,0-.6-.242,2.69,2.69,0,0,0-1.243-.035c-.068.015-.138.032-.206.052a2.535,2.535,0,0,0-.424.164,2.638,2.638,0,0,0-.973.8c-.031.042-.062.085-.089.128-.043.065-.084.132-.122.2a2.681,2.681,0,0,0-.316.983,2.762,2.762,0,0,0-.019.321,2.715,2.715,0,0,0,.311,1.245c.006.014.014.026.021.04a2.668,2.668,0,0,0,.856.941,2.337,2.337,0,0,0,.214.13,2.676,2.676,0,0,0,1.291.333,2.7,2.7,0,0,0,.759-.109,2.7,2.7,0,0,0,1.833-3.341Zm-1.315,1.453a1.44,1.44,0,0,1-.866.7,1.463,1.463,0,0,1-.552.051,1.439,1.439,0,0,1-.554-.171l-.017-.01a1.453,1.453,0,0,1-.573-.593,1.535,1.535,0,0,1-.1-.237.225.225,0,0,1-.009-.027,1.456,1.456,0,0,1-.058-.39,1.393,1.393,0,0,1,.042-.358,1.42,1.42,0,0,1,.138-.357,1.5,1.5,0,0,1,.112-.174,1.434,1.434,0,0,1,.608-.47l0,0a1.366,1.366,0,0,1,.142-.05,1.491,1.491,0,0,1,.409-.058,1.435,1.435,0,0,1,.692.178h0a1.45,1.45,0,0,1,.575,1.972Z" transform="translate(-313.192 -581.116)"/>
      </g>
      <g id="Group_1577" data-name="Group 1577" transform="translate(0 6.907)">
        <path id="Path_644" data-name="Path 644" class="cls-2" d="M130.67,480.058c-.019-.063-.039-.124-.062-.185a2.7,2.7,0,1,0-3.821,3.3,2.743,2.743,0,0,0,.6.242,2.646,2.646,0,0,0,.69.091,2.683,2.683,0,0,0,.553-.057c.07-.014.138-.031.206-.051a2.68,2.68,0,0,0,1.3-.844,2.747,2.747,0,0,0,.307-.449,2.68,2.68,0,0,0,.225-2.05Zm-2.039,2.1c-.046.019-.093.035-.142.05a1.44,1.44,0,0,1-1.1-.119l0,0a1.452,1.452,0,0,1,1.353-2.568l.042.022a1.452,1.452,0,0,1-.149,2.618Z" transform="translate(-125.386 -478.117)"/>
      </g>
      <g id="Group_1578" data-name="Group 1578" transform="translate(2.003 2.786)">
        <path id="Path_645" data-name="Path 645" class="cls-2" d="M164.834,465.839l-.017-.01a1.453,1.453,0,0,1-.573-.593l-1.008.582h0l-.066.04-7.083,4.091h0l-1.082.625a1.438,1.438,0,0,1,.316.9,1.419,1.419,0,0,1-.051.38l1.27-.733,7.488-4.323,1.364-.788A1.439,1.439,0,0,1,164.834,465.839Zm-12.106,4.734-1.082-.625h0l-6.671-3.853-.69-.4h0l-.4-.231a1.336,1.336,0,0,1-.087.229,1.471,1.471,0,0,1-.137.23,1.437,1.437,0,0,1-.419.383,1.459,1.459,0,0,1-.206.1l1.21.7,6.953,4.015,1.27.733a1.418,1.418,0,0,1-.051-.38A1.438,1.438,0,0,1,152.727,470.573Zm.116-24.684a1.44,1.44,0,0,1-.427-.939l-1.139.657-7.247,4.185-1.178.68.042.022a1.446,1.446,0,0,1,.722.972l1.106-.639,7.167-4.138.736-.425.394-.227A1.531,1.531,0,0,1,152.843,445.889ZM141.5,453.043v10.95a1.4,1.4,0,0,1,.229-.171,1.442,1.442,0,0,1,.749-.211h.055a1.7,1.7,0,0,1,.21.022V453.112c-.046.019-.093.035-.142.05A1.44,1.44,0,0,1,141.5,453.043Zm24.5-.531a1.445,1.445,0,0,1-1.014.185v10.523a1.361,1.361,0,0,1,.142-.05,1.491,1.491,0,0,1,.409-.058,1.435,1.435,0,0,1,.692.178v-10.95A1.444,1.444,0,0,1,166,452.512Zm-2.792-3.006-6.753-3.9-1.139-.657a1.435,1.435,0,0,1-.373.884,1.493,1.493,0,0,1-.23.2l.521.3.609.352,6.792,3.922,1.161.67a1.513,1.513,0,0,1,.042-.357,1.45,1.45,0,0,1,.486-.774Zm-8.595-4.242.016.027.007-.014Z" transform="translate(-141.502 -444.95)"/>
      </g>
      <g id="Group_1579" data-name="Group 1579" transform="translate(13.744 4.007)">
        <path id="Path_646" data-name="Path 646" class="cls-2" d="M237.235,454.78v23.99a1.456,1.456,0,0,0-1.243,0V454.78a1.437,1.437,0,0,0,.536.135q.043,0,.086,0a1.364,1.364,0,0,0,.176-.011A1.446,1.446,0,0,0,237.235,454.78Z" transform="translate(-235.992 -454.78)"/>
      </g>
      <g id="Group_1580" data-name="Group 1580" transform="translate(4.055 9.21)">
        <path id="Path_647" data-name="Path 647" class="cls-2" d="M178.877,497.732l-1.1.69-18.017,11.312-.163.1-1.221.767a1.424,1.424,0,0,0-.112-.879,1.232,1.232,0,0,0-.073-.139,1.406,1.406,0,0,0-.086-.127,1.275,1.275,0,0,0-.085-.1l.225-.142.836-.526,18.058-11.337h0l1.122-.7a1.455,1.455,0,0,0,.208.649A1.432,1.432,0,0,0,178.877,497.732Z" transform="translate(-158.022 -496.65)"/>
      </g>
      <g id="Group_1581" data-name="Group 1581" transform="translate(3.771 9.704)">
        <path id="Path_648" data-name="Path 648" class="cls-2" d="M176.584,512.985a1.389,1.389,0,0,0-.042.358,1.455,1.455,0,0,0,.058.39.23.23,0,0,0,.009.027l-.731-.422-.562-.324-19.584-11.307.621-1.076,19.4,11.2.246.143.834.481a1.483,1.483,0,0,0-.112.174A1.418,1.418,0,0,0,176.584,512.985Z" transform="translate(-155.732 -500.63)"/>
      </g>
      <g id="Group_1582" data-name="Group 1582" transform="translate(14.279 3.669)">
        <path id="Path_649" data-name="Path 649" class="cls-2" d="M251.5,469.45a1.433,1.433,0,0,0-.608.47,1.482,1.482,0,0,0-.112.174,1.422,1.422,0,0,0-.138.357l-.584-1.011-.157-.271-4.169-7.222-.621-1.076-4.105-7.111-.026-.046-.553-.957-.128-.222q.043,0,.086,0a1.373,1.373,0,0,0,.176-.011,1.447,1.447,0,0,0,.445-.128,1.523,1.523,0,0,0,.225-.134,1.49,1.49,0,0,0,.23-.2l.291.5.345.6,4.067,7.044.623,1.076,4.088,7.084Z" transform="translate(-240.302 -452.06)"/>
      </g>
      <g id="Group_1583" data-name="Group 1583" transform="translate(3.035 3.1)">
        <path id="Path_650" data-name="Path 650" class="cls-2" d="M161.318,452.92l-.134.23-.565.973-.1.169-4.179,7.185-.625,1.074-4.149,7.134-.511.88-.14.241a1.272,1.272,0,0,0-.085-.1,1.436,1.436,0,0,0-.726-.432l-.084-.019a1.7,1.7,0,0,0-.21-.022l.21-.36.456-.784,4.164-7.158.625-1.074,4.219-7.253.416-.717.219-.375a1.54,1.54,0,0,0,.175.148,1.511,1.511,0,0,0,.225.134,1.435,1.435,0,0,0,.536.135q.043,0,.086,0A1.374,1.374,0,0,0,161.318,452.92Z" transform="translate(-149.812 -451.885)"/>
        <path id="Path_651" data-name="Path 651" class="cls-2" d="M247.026,447.494l-.007.014L247,447.48Z" transform="translate(-234.926 -447.48)"/>
      </g>
      <g id="Group_1584" data-name="Group 1584" transform="translate(4.291 22.286)">
        <path id="Path_652" data-name="Path 652" class="cls-2" d="M180.948,603.259l-1.581-.011h-.089l-18.045-.118-.819,0h0l-.49,0a1.33,1.33,0,0,0,.087-.229l.015-.055c.006-.027.012-.053.017-.081a1.425,1.425,0,0,0-.112-.879l1.311.008h.185l17.541.114.58,0,.664,0a1.454,1.454,0,0,0,.058.39.224.224,0,0,0,.009.027,1.531,1.531,0,0,0,.1.237A1.453,1.453,0,0,0,180.948,603.259Z" transform="translate(-159.922 -601.88)"/>
      </g>
    </g>
  </g>
</svg>
