<svg xmlns="http://www.w3.org/2000/svg" width="33.684" height="33.684" viewBox="0 0 33.684 33.684">
  <defs>
    <style>
      .cls-1 {
        fill: none;
      }

      .cls-2 {
        fill: #fff;
      }
    </style>
  </defs>
  <g id="Group_1820" data-name="Group 1820" transform="translate(0 0)">
    <rect id="Rectangle_1682" data-name="Rectangle 1682" class="cls-1" width="33.684" height="33.684"/>
    <g id="Group_1822" data-name="Group 1822" transform="translate(3.178 2.246)">
      <g id="Group_1585" data-name="Group 1585" transform="translate(0 0)">
        <g id="Group_1572" data-name="Group 1572" transform="translate(11.024 0)">
          <path id="Path_639" data-name="Path 639" class="cls-2" d="M221.848,422.53a2.549,2.549,0,0,0-2.546,2.545,2.516,2.516,0,0,0,.1.708,2.543,2.543,0,0,0,.579,1.022,2.573,2.573,0,0,0,1.279.747c.031.008.062.015.093.021a2.539,2.539,0,0,0,.494.048,2.464,2.464,0,0,0,.562-.063l.025-.006a2.536,2.536,0,0,0,1.031-.512,2.632,2.632,0,0,0,.249-.235,2.543,2.543,0,0,0,.579-1.022,2.515,2.515,0,0,0,.1-.708A2.549,2.549,0,0,0,221.848,422.53ZM222.865,426a1.406,1.406,0,0,1-.217.192,1.422,1.422,0,0,1-.212.127,1.369,1.369,0,0,1-.42.121,1.306,1.306,0,0,1-.167.011q-.04,0-.081,0a1.355,1.355,0,0,1-.506-.128,1.425,1.425,0,0,1-.378-.266,1.36,1.36,0,0,1-.4-.887c0-.028,0-.057,0-.087a1.372,1.372,0,0,1,2.744,0c0,.029,0,.059,0,.087A1.356,1.356,0,0,1,222.865,426Z" transform="translate(-219.302 -422.53)"/>
        </g>
        <g id="Group_1573" data-name="Group 1573" transform="translate(11.024 25.144)">
          <path id="Path_640" data-name="Path 640" class="cls-2" d="M224.372,638.941a2.525,2.525,0,0,0-.426-1.108h0a2.546,2.546,0,0,0-1.51-1.034,2.523,2.523,0,0,0-1.174,0,2.546,2.546,0,0,0-1.51,1.034h0a2.523,2.523,0,0,0-.426,1.108,2.413,2.413,0,0,0-.022.333,2.546,2.546,0,0,0,5.092,0A2.417,2.417,0,0,0,224.372,638.941Zm-2.524,1.706a1.374,1.374,0,0,1-1.324-1.013,1.341,1.341,0,0,1-.048-.359,1.359,1.359,0,0,1,.3-.851,1.379,1.379,0,0,1,.487-.389,1.376,1.376,0,0,1,1.174,0,1.379,1.379,0,0,1,.487.389,1.359,1.359,0,0,1,.3.851,1.342,1.342,0,0,1-.048.359A1.374,1.374,0,0,1,221.848,640.647Z" transform="translate(-219.302 -636.73)"/>
        </g>
        <g id="Group_1574" data-name="Group 1574" transform="translate(21.775 6.057)">
          <path id="Path_641" data-name="Path 641" class="cls-2" d="M315.613,475.356a2.545,2.545,0,0,0-4.646.7l0,.015a2.528,2.528,0,0,0,.043,1.371h0a2.561,2.561,0,0,0,.252.554,2.544,2.544,0,0,0,1.93,1.214c.083.008.167.013.251.013a2.5,2.5,0,0,0,.923-.175,2.535,2.535,0,0,0,.392-.194h0A2.549,2.549,0,0,0,315.613,475.356Zm-1.25,2.331a1.374,1.374,0,0,1-2.1-.3,1.375,1.375,0,0,1-.2-.613q0-.044,0-.088a1.427,1.427,0,0,1,.04-.337,1.37,1.37,0,0,1,.459-.731,1.632,1.632,0,0,1,.163-.115,1.356,1.356,0,0,1,.709-.2,1.372,1.372,0,0,1,.928,2.383Z" transform="translate(-310.889 -474.131)"/>
        </g>
        <g id="Group_1575" data-name="Group 1575" transform="translate(0.271 19.086)">
          <path id="Path_642" data-name="Path 642" class="cls-2" d="M132.748,587.2q-.009-.049-.021-.1a2.538,2.538,0,0,0-.3-.747,2.332,2.332,0,0,0-.162-.236,2.467,2.467,0,0,0-.308-.335,2.505,2.505,0,0,0-1.029-.563.66.66,0,0,0-.072-.02,2.358,2.358,0,0,0-.359-.06,2.486,2.486,0,0,0-1.174.161,2.443,2.443,0,0,0-.392.195,2.546,2.546,0,0,0,.713,4.65,2.579,2.579,0,0,0,.61.074,2.539,2.539,0,0,0,.678-.093,2.575,2.575,0,0,0,.636-.277,2.531,2.531,0,0,0,.34-.247,2.5,2.5,0,0,0,.693-.955,2.46,2.46,0,0,0,.121-.369s0,0,0,0A2.539,2.539,0,0,0,132.748,587.2ZM129.919,589a1.371,1.371,0,0,1-.6-2.344,1.342,1.342,0,0,1,.216-.162,1.363,1.363,0,0,1,.708-.2h.052a1.584,1.584,0,0,1,.2.021l.08.018a1.357,1.357,0,0,1,.686.408c.028.031.055.061.08.094a1.34,1.34,0,0,1,.081.12,1.157,1.157,0,0,1,.069.131,1.346,1.346,0,0,1,.106.83c0,.026-.011.05-.016.076l-.014.052a1.268,1.268,0,0,1-.082.216,1.4,1.4,0,0,1-.129.217,1.377,1.377,0,0,1-1.433.521Z" transform="translate(-127.699 -585.124)"/>
        </g>
        <g id="Group_1576" data-name="Group 1576" transform="translate(22.045 18.615)">
          <path id="Path_643" data-name="Path 643" class="cls-2" d="M318.184,582.951a2.532,2.532,0,0,0-1.221-1.519,2.57,2.57,0,0,0-.568-.229,2.541,2.541,0,0,0-1.174-.033c-.065.014-.13.03-.195.049a2.4,2.4,0,0,0-.4.155,2.494,2.494,0,0,0-.919.755c-.029.04-.059.08-.084.121-.041.061-.08.124-.115.189a2.533,2.533,0,0,0-.3.929,2.612,2.612,0,0,0-.018.3,2.564,2.564,0,0,0,.293,1.176c.006.013.013.025.02.038a2.52,2.52,0,0,0,.809.888,2.2,2.2,0,0,0,.2.123,2.527,2.527,0,0,0,1.22.315,2.555,2.555,0,0,0,.717-.1,2.547,2.547,0,0,0,1.731-3.156Zm-1.242,1.372a1.36,1.36,0,0,1-.818.657,1.384,1.384,0,0,1-.521.048,1.361,1.361,0,0,1-.523-.162l-.016-.009a1.374,1.374,0,0,1-.541-.56,1.435,1.435,0,0,1-.092-.224.208.208,0,0,1-.008-.026,1.375,1.375,0,0,1-.055-.369,1.317,1.317,0,0,1,.04-.338,1.342,1.342,0,0,1,.13-.337,1.4,1.4,0,0,1,.106-.164,1.353,1.353,0,0,1,.574-.444l0,0a1.317,1.317,0,0,1,.134-.047,1.411,1.411,0,0,1,.386-.055,1.355,1.355,0,0,1,.654.168h0a1.37,1.37,0,0,1,.543,1.863Z" transform="translate(-313.192 -581.117)"/>
        </g>
        <g id="Group_1577" data-name="Group 1577" transform="translate(0 6.525)">
          <path id="Path_644" data-name="Path 644" class="cls-2" d="M130.378,479.951c-.018-.06-.036-.117-.059-.175a2.546,2.546,0,1,0-3.61,3.12,2.589,2.589,0,0,0,.568.229,2.5,2.5,0,0,0,.651.086,2.535,2.535,0,0,0,.522-.054c.066-.013.13-.029.195-.048a2.531,2.531,0,0,0,1.229-.8,2.6,2.6,0,0,0,.29-.424,2.532,2.532,0,0,0,.212-1.937Zm-1.926,1.984c-.043.018-.088.033-.134.047a1.36,1.36,0,0,1-1.04-.113l0,0a1.371,1.371,0,0,1,1.278-2.426l.04.021a1.372,1.372,0,0,1-.141,2.473Z" transform="translate(-125.386 -478.117)"/>
        </g>
        <g id="Group_1578" data-name="Group 1578" transform="translate(1.892 2.632)">
          <path id="Path_645" data-name="Path 645" class="cls-2" d="M163.543,464.683l-.016-.009a1.373,1.373,0,0,1-.541-.56l-.952.549h0l-.062.038-6.691,3.864h0l-1.022.59a1.359,1.359,0,0,1,.3.851,1.341,1.341,0,0,1-.048.359l1.2-.693,7.073-4.084,1.289-.744A1.358,1.358,0,0,1,163.543,464.683Zm-11.437,4.472-1.022-.59h0l-6.3-3.64-.651-.378h0l-.38-.218a1.26,1.26,0,0,1-.082.216,1.392,1.392,0,0,1-.129.217,1.357,1.357,0,0,1-.4.362,1.38,1.38,0,0,1-.195.1l1.143.66,6.569,3.793,1.2.693a1.341,1.341,0,0,1-.048-.359A1.359,1.359,0,0,1,152.106,469.156Zm.109-23.318a1.36,1.36,0,0,1-.4-.888l-1.076.621-6.846,3.954-1.113.642.04.021a1.366,1.366,0,0,1,.682.918l1.045-.6,6.771-3.909.695-.4.372-.215A1.437,1.437,0,0,1,152.216,445.837ZM141.5,452.6v10.344a1.327,1.327,0,0,1,.216-.162,1.363,1.363,0,0,1,.708-.2h.052a1.62,1.62,0,0,1,.2.021v-9.939c-.043.018-.088.033-.134.047A1.36,1.36,0,0,1,141.5,452.6Zm23.141-.5a1.365,1.365,0,0,1-.958.175v9.941a1.272,1.272,0,0,1,.134-.047,1.409,1.409,0,0,1,.386-.055,1.355,1.355,0,0,1,.654.168V451.932A1.369,1.369,0,0,1,164.643,452.094Zm-2.638-2.839-6.38-3.684-1.076-.621a1.356,1.356,0,0,1-.352.835,1.408,1.408,0,0,1-.217.192l.492.284.575.332,6.416,3.7,1.1.633a1.429,1.429,0,0,1,.04-.337,1.369,1.369,0,0,1,.459-.731Zm-8.119-4.007.015.026.007-.013Z" transform="translate(-141.502 -444.95)"/>
        </g>
        <g id="Group_1579" data-name="Group 1579" transform="translate(12.983 3.786)">
          <path id="Path_646" data-name="Path 646" class="cls-2" d="M237.166,454.78v22.663a1.375,1.375,0,0,0-1.174,0V454.78a1.362,1.362,0,0,0,.506.128q.041,0,.081,0a1.279,1.279,0,0,0,.167-.011A1.366,1.366,0,0,0,237.166,454.78Z" transform="translate(-235.992 -454.78)"/>
        </g>
        <g id="Group_1580" data-name="Group 1580" transform="translate(3.831 8.7)">
          <path id="Path_647" data-name="Path 647" class="cls-2" d="M177.724,497.672l-1.038.651-17.021,10.687-.154.1-1.154.724a1.345,1.345,0,0,0-.106-.83,1.165,1.165,0,0,0-.069-.132,1.315,1.315,0,0,0-.081-.12,1.2,1.2,0,0,0-.08-.094l.212-.134.79-.5,17.059-10.71h0l1.06-.666a1.374,1.374,0,0,0,.2.613A1.352,1.352,0,0,0,177.724,497.672Z" transform="translate(-158.022 -496.65)"/>
        </g>
        <g id="Group_1581" data-name="Group 1581" transform="translate(3.562 9.168)">
          <path id="Path_648" data-name="Path 648" class="cls-2" d="M175.43,512.3a1.312,1.312,0,0,0-.04.338,1.374,1.374,0,0,0,.055.369.223.223,0,0,0,.008.026l-.69-.4-.531-.306-18.5-10.682.587-1.017,18.327,10.581.232.135.788.454a1.393,1.393,0,0,0-.106.164A1.342,1.342,0,0,0,175.43,512.3Z" transform="translate(-155.732 -500.63)"/>
        </g>
        <g id="Group_1582" data-name="Group 1582" transform="translate(13.489 3.466)">
          <path id="Path_649" data-name="Path 649" class="cls-2" d="M250.883,468.488a1.354,1.354,0,0,0-.574.444,1.4,1.4,0,0,0-.106.164,1.34,1.34,0,0,0-.13.337l-.552-.956-.148-.256-3.938-6.822-.587-1.017-3.878-6.718-.025-.043-.522-.9-.121-.21q.041,0,.081,0a1.3,1.3,0,0,0,.167-.011,1.368,1.368,0,0,0,.42-.121,1.438,1.438,0,0,0,.212-.127,1.407,1.407,0,0,0,.217-.193l.275.477.326.567,3.842,6.654.588,1.017,3.862,6.692Z" transform="translate(-240.302 -452.06)"/>
        </g>
        <g id="Group_1583" data-name="Group 1583" transform="translate(2.867 2.929)">
          <path id="Path_650" data-name="Path 650" class="cls-2" d="M160.682,452.9l-.127.217-.534.919-.093.16-3.948,6.787-.59,1.014-3.919,6.739-.482.831-.133.228a1.21,1.21,0,0,0-.08-.094,1.356,1.356,0,0,0-.686-.409l-.08-.018a1.6,1.6,0,0,0-.2-.021l.2-.34.431-.741,3.934-6.762.59-1.014,3.985-6.852.393-.677.207-.355a1.441,1.441,0,0,0,.166.14,1.419,1.419,0,0,0,.212.127,1.354,1.354,0,0,0,.506.128q.041,0,.081,0A1.3,1.3,0,0,0,160.682,452.9Z" transform="translate(-149.812 -451.92)"/>
          <path id="Path_651" data-name="Path 651" class="cls-2" d="M247.024,447.493l-.007.013L247,447.48Z" transform="translate(-235.594 -447.48)"/>
        </g>
        <g id="Group_1584" data-name="Group 1584" transform="translate(4.054 21.053)">
          <path id="Path_652" data-name="Path 652" class="cls-2" d="M179.784,603.183l-1.493-.011h-.085l-17.046-.112-.774,0h0l-.463,0a1.247,1.247,0,0,0,.082-.216l.014-.052c.006-.026.012-.05.016-.076a1.346,1.346,0,0,0-.106-.83l1.238.007h.175l16.571.108.548,0,.627,0a1.374,1.374,0,0,0,.055.369.209.209,0,0,0,.008.026,1.45,1.45,0,0,0,.092.224A1.373,1.373,0,0,0,179.784,603.183Z" transform="translate(-159.922 -601.88)"/>
        </g>
      </g>
    </g>
  </g>
</svg>
