<svg xmlns="http://www.w3.org/2000/svg" width="29.686" height="29.687" viewBox="0 0 29.686 29.687">
  <defs>
    <style>
      .cls-1 {
        fill: #fff;
      }
    </style>
  </defs>
  <g id="settings" transform="translate(0.001 0)">
    <g id="Group_716" data-name="Group 716">
      <g id="Group_715" data-name="Group 715">
        <path id="Path_551" data-name="Path 551" class="cls-1" d="M28.363,11.976c-.558-.084-1.131-.164-1.7-.238a.168.168,0,0,1-.143-.12,12.049,12.049,0,0,0-1.139-2.748.169.169,0,0,1,.016-.187c.352-.457.7-.919,1.036-1.374a1.565,1.565,0,0,0-.153-2.025L24.4,3.409a1.565,1.565,0,0,0-2.025-.153c-.453.335-.915.684-1.374,1.036a.169.169,0,0,1-.187.016A12.049,12.049,0,0,0,18.068,3.17a.168.168,0,0,1-.12-.143c-.075-.573-.155-1.146-.238-1.7A1.565,1.565,0,0,0,16.17,0H13.516a1.565,1.565,0,0,0-1.54,1.323c-.083.557-.164,1.13-.238,1.7a.168.168,0,0,1-.12.143A12.053,12.053,0,0,0,8.871,4.308a.17.17,0,0,1-.187-.016c-.458-.352-.92-.7-1.374-1.036a1.565,1.565,0,0,0-2.025.153L3.409,5.286A1.565,1.565,0,0,0,3.256,7.31c.337.455.685.917,1.036,1.373a.169.169,0,0,1,.016.187A12.05,12.05,0,0,0,3.17,11.618a.168.168,0,0,1-.143.12c-.572.075-1.145.155-1.7.238A1.565,1.565,0,0,0,0,13.516V16.17a1.565,1.565,0,0,0,1.323,1.54c.559.084,1.132.164,1.7.238a.168.168,0,0,1,.143.12,12.05,12.05,0,0,0,1.139,2.748A.169.169,0,0,1,4.293,21c-.352.458-.7.92-1.036,1.374A1.565,1.565,0,0,0,3.409,24.4l1.877,1.877a1.565,1.565,0,0,0,2.025.153c.453-.335.915-.684,1.374-1.036a.169.169,0,0,1,.187-.016,12.051,12.051,0,0,0,2.748,1.139.168.168,0,0,1,.12.143c.075.573.155,1.146.238,1.7a1.565,1.565,0,0,0,1.54,1.323H16.17a1.565,1.565,0,0,0,1.54-1.324c.083-.558.164-1.131.238-1.7a.169.169,0,0,1,.12-.143,12.054,12.054,0,0,0,2.748-1.139.17.17,0,0,1,.187.016c.458.352.92.7,1.374,1.036a1.565,1.565,0,0,0,2.025-.153L26.277,24.4a1.565,1.565,0,0,0,.153-2.025c-.336-.454-.685-.916-1.036-1.374a.169.169,0,0,1-.016-.187,12.051,12.051,0,0,0,1.139-2.748.169.169,0,0,1,.143-.12c.572-.075,1.145-.155,1.7-.238a1.565,1.565,0,0,0,1.323-1.54V13.516A1.565,1.565,0,0,0,28.363,11.976ZM28.3,16.17a.17.17,0,0,1-.142.169c-.55.082-1.114.161-1.678.235a1.552,1.552,0,0,0-1.3,1.126,10.666,10.666,0,0,1-1.007,2.431,1.553,1.553,0,0,0,.122,1.717c.347.45.69.905,1.021,1.353a.17.17,0,0,1-.019.22L23.42,25.3a.17.17,0,0,1-.22.019c-.446-.33-.9-.674-1.353-1.021a1.552,1.552,0,0,0-1.717-.123A10.668,10.668,0,0,1,17.7,25.18a1.552,1.552,0,0,0-1.126,1.3c-.073.564-.152,1.128-.235,1.678a.17.17,0,0,1-.169.142H13.516a.17.17,0,0,1-.169-.142c-.082-.549-.161-1.113-.235-1.677a1.552,1.552,0,0,0-1.126-1.3,10.663,10.663,0,0,1-2.431-1.008,1.552,1.552,0,0,0-1.717.123c-.451.347-.906.691-1.353,1.021a.17.17,0,0,1-.22-.019L4.389,23.421a.17.17,0,0,1-.019-.22c.331-.447.674-.9,1.021-1.353a1.553,1.553,0,0,0,.123-1.717A10.665,10.665,0,0,1,4.506,17.7a1.552,1.552,0,0,0-1.3-1.126c-.563-.073-1.128-.152-1.678-.235a.17.17,0,0,1-.142-.169V13.516a.17.17,0,0,1,.142-.169c.55-.082,1.114-.161,1.678-.235a1.552,1.552,0,0,0,1.3-1.126A10.66,10.66,0,0,1,5.514,9.556a1.553,1.553,0,0,0-.123-1.717c-.346-.45-.689-.9-1.021-1.353a.17.17,0,0,1,.019-.22L6.266,4.389a.17.17,0,0,1,.22-.019c.446.33.9.674,1.353,1.021a1.553,1.553,0,0,0,1.717.122,10.664,10.664,0,0,1,2.431-1.008,1.552,1.552,0,0,0,1.126-1.3c.074-.564.153-1.129.235-1.678a.17.17,0,0,1,.169-.142H16.17a.17.17,0,0,1,.169.142c.082.549.161,1.113.235,1.678a1.552,1.552,0,0,0,1.126,1.3,10.668,10.668,0,0,1,2.431,1.008,1.553,1.553,0,0,0,1.717-.123c.451-.347.906-.691,1.353-1.021a.17.17,0,0,1,.22.019L25.3,6.266a.17.17,0,0,1,.019.22c-.331.447-.674.9-1.021,1.353a1.553,1.553,0,0,0-.122,1.717,10.665,10.665,0,0,1,1.008,2.431,1.552,1.552,0,0,0,1.3,1.126c.563.074,1.128.152,1.678.235a.17.17,0,0,1,.142.169V16.17Z"/>
      </g>
    </g>
    <g id="Group_718" data-name="Group 718" transform="translate(8.4 8.4)">
      <g id="Group_717" data-name="Group 717">
        <path id="Path_552" data-name="Path 552" class="cls-1" d="M151.31,144.866a6.444,6.444,0,1,0,6.444,6.444A6.451,6.451,0,0,0,151.31,144.866Zm0,11.5a5.057,5.057,0,1,1,5.057-5.057A5.063,5.063,0,0,1,151.31,156.367Z" transform="translate(-144.866 -144.866)"/>
      </g>
    </g>
  </g>
</svg>
