<svg xmlns="http://www.w3.org/2000/svg" width="33.684" height="33.684" viewBox="0 0 33.684 33.684">
  <defs>
    <style>
      .cls-1 {
        opacity: 0.5;
      }

      .cls-2 {
        fill: none;
      }

      .cls-3 {
        fill: #fff;
      }
    </style>
  </defs>
  <g id="Group_1821" data-name="Group 1821" class="cls-1">
    <rect id="Rectangle_1682" data-name="Rectangle 1682" class="cls-2" width="33.684" height="33.684"/>
    <g id="speedometer" transform="translate(2.401 5.632)">
      <g id="Group_679" data-name="Group 679" transform="translate(0 0)">
        <path id="Path_528" data-name="Path 528" class="cls-3" d="M148.119,193.524a1.213,1.213,0,0,0,0-2.426l-5.492-4.04,4.28,5.328A1.216,1.216,0,0,0,148.119,193.524Z" transform="translate(-132.756 -177.936)"/>
        <rect id="Rectangle_1528" data-name="Rectangle 1528" class="cls-3" width="12.107" height="2.873" transform="translate(8.79 19.168)"/>
        <path id="Path_529" data-name="Path 529" class="cls-3" d="M25.339,59.586A14.847,14.847,0,0,0,1.856,77.28H4.63l2.029-1.172-.9-1.552L3.154,76.062a13.053,13.053,0,0,1-1.442-5.98c0-.381.017-.758.049-1.131l3.111.549.311-1.765L2.035,67.18a13.127,13.127,0,0,1,3.582-6.433L7.75,63.289l1.373-1.152L6.974,59.576a13.059,13.059,0,0,1,6.973-2.594v3.4h1.792v-3.4a13.061,13.061,0,0,1,6.973,2.594l-2.149,2.561,1.373,1.152,2.133-2.542a13.128,13.128,0,0,1,3.582,6.433l-3.148.555.311,1.765,3.111-.549c.032.373.049.75.049,1.131a13.05,13.05,0,0,1-1.442,5.98l-2.609-1.506-.9,1.552,2.029,1.171h2.774a14.859,14.859,0,0,0-2.492-17.693Z" transform="translate(0 -55.239)"/>
      </g>
    </g>
  </g>
</svg>
