<svg xmlns="http://www.w3.org/2000/svg" width="31.906" height="35.141" viewBox="0 0 31.906 35.141">
  <defs>
    <style>
      .cls-1 {
        fill: #bcbccb;
      }
    </style>
  </defs>
  <g id="Signout" transform="translate(0 0)">
    <g id="Layer_1" data-name="Layer 1">
      <path id="Path_520" data-name="Path 520" class="cls-1" d="M0,72.149A15.931,15.931,0,0,1,8,58.393,1.529,1.529,0,0,1,10.4,59.5a1.55,1.55,0,0,1-.889,1.586,12.714,12.714,0,0,0-4.62,4.6,12.829,12.829,0,1,0,23.895,6.3,12.483,12.483,0,0,0-6.5-10.977,1.691,1.691,0,0,1-.994-1.357,1.463,1.463,0,0,1,.677-1.4,1.5,1.5,0,0,1,1.633-.056,15.734,15.734,0,0,1,4.769,3.984A15.93,15.93,0,1,1,.172,74.205C.091,73.537.059,72.861,0,72.149Z" transform="translate(0 -52.978)"/>
      <path id="Path_521" data-name="Path 521" class="cls-1" d="M170.281,9.986v8.32a1.591,1.591,0,0,1-.548,1.294,1.44,1.44,0,0,1-1.6.273,1.514,1.514,0,0,1-.957-1.488V1.664a1.556,1.556,0,1,1,3.094,0V9.983Z" transform="translate(-152.761 0.061)"/>
    </g>
  </g>
</svg>
